/* XPM */
static char * UVAutoRatioIconOver_xpm[] = {
"32 32 405 2",
"  	c None",
". 	c #FFFFFF",
"+ 	c #FAFAFC",
"@ 	c #DDDDE6",
"# 	c #B5B6C3",
"$ 	c #9E9FAE",
"% 	c #9FA0AF",
"& 	c #EBEBF1",
"* 	c #B2B3C1",
"= 	c #AEAFBD",
"- 	c #B6B7C4",
"; 	c #C2C4CF",
"> 	c #CBCBD6",
", 	c #CDCFD9",
"' 	c #CECFD9",
") 	c #C3C4CF",
"! 	c #B0B1BF",
"~ 	c #B4B5C2",
"{ 	c #CCCCD7",
"] 	c #E0E0E8",
"^ 	c #E9EAF0",
"/ 	c #EDEEF4",
"( 	c #EFF0F5",
"_ 	c #EFEFF5",
": 	c #EEEEF4",
"< 	c #EAEBF1",
"[ 	c #E0E1E9",
"} 	c #CDCDD8",
"| 	c #B2B3C0",
"1 	c #D1D2DC",
"2 	c #EBEBF2",
"3 	c #F5F5F9",
"4 	c #F8F9FB",
"5 	c #FBFBFD",
"6 	c #F9F9FC",
"7 	c #F5F6F9",
"8 	c #ECECF2",
"9 	c #D2D3DD",
"0 	c #AAACBA",
"a 	c #C5C6D1",
"b 	c #E7E8EF",
"c 	c #F6F6FA",
"d 	c #F7F7FA",
"e 	c #E8E9F0",
"f 	c #C6C7D2",
"g 	c #ABACBA",
"h 	c #D3D3DD",
"i 	c #D4D5DE",
"j 	c #AFB0BD",
"k 	c #9C9EAD",
"l 	c #D7D8E1",
"m 	c #DFE0E4",
"n 	c #6B6B6D",
"o 	c #545456",
"p 	c #9E9FA2",
"q 	c #F1F2F7",
"r 	c #F2F3F8",
"s 	c #E9EAEF",
"t 	c #7E7E81",
"u 	c #8D8D90",
"v 	c #949497",
"w 	c #59595B",
"x 	c #5F5F61",
"y 	c #E2E3E8",
"z 	c #F3F4F9",
"A 	c #BFC0C4",
"B 	c #696A6C",
"C 	c #545556",
"D 	c #B6B7BB",
"E 	c #F0F0F6",
"F 	c #D9D9E3",
"G 	c #B5B6C2",
"H 	c #9C9DAC",
"I 	c #B5B5C2",
"J 	c #D5D5DF",
"K 	c #DADBE0",
"L 	c #57575A",
"M 	c #3E3E40",
"N 	c #909094",
"O 	c #EDEDF4",
"P 	c #EEEEF5",
"Q 	c #E4E4EB",
"R 	c #6C6C6F",
"S 	c #7F8083",
"T 	c #A6A6AB",
"U 	c #545557",
"V 	c #B3B3B9",
"W 	c #EFEFF6",
"X 	c #96969B",
"Y 	c #444446",
"Z 	c #4C4C4F",
"` 	c #D5D5DB",
" .	c #ECECF3",
"..	c #B6B8C3",
"+.	c #9B9CAB",
"@.	c #D9DAE1",
"#.	c #909195",
"$.	c #EDEEF5",
"%.	c #EEEFF6",
"&.	c #E4E5EC",
"*.	c #7F8084",
"=.	c #CACBD1",
"-.	c #6A6A6D",
";.	c #79797D",
">.	c #D5D6DC",
",.	c #76777A",
"'.	c #7B7B7F",
").	c #E1E2E9",
"!.	c #ECECF4",
"~.	c #D0D1DB",
"{.	c #B3B4C1",
"].	c #AEAFBB",
"^.	c #CCCED8",
"/.	c #D5D6DF",
"(.	c #555659",
"_.	c #3C3D3F",
":.	c #8D8E93",
"<.	c #E8E9F2",
"[.	c #E9EAF3",
"}.	c #DFE0E9",
"|.	c #696A6E",
"1.	c #3D3D3F",
"2.	c #7D7D82",
"3.	c #DBDCE4",
"4.	c #86868C",
"5.	c #434346",
"6.	c #4E4E51",
"7.	c #DDDDE5",
"8.	c #EAEAF3",
"9.	c #B8B8BF",
"0.	c #555558",
"a.	c #A9A9B0",
"b.	c #E6E6EF",
"c.	c #EAEBF3",
"d.	c #E7E9F1",
"e.	c #CDCED8",
"f.	c #AFB0BC",
"g.	c #9A9CAB",
"h.	c #A8A9B7",
"i.	c #CBCCD8",
"j.	c #555559",
"k.	c #3D3D40",
"l.	c #8D8E94",
"m.	c #E8E9F3",
"n.	c #E9EAF4",
"o.	c #DFE0EA",
"p.	c #7D7D83",
"q.	c #DDDEE7",
"r.	c #B1B2B9",
"s.	c #4F4F53",
"t.	c #404143",
"u.	c #B0B1B8",
"v.	c #E3E4EE",
"w.	c #9A9BA1",
"x.	c #56575A",
"y.	c #C7C8D0",
"z.	c #EAEAF4",
"A.	c #E7E8F2",
"B.	c #AAABB8",
"C.	c #A4A5B3",
"D.	c #C9CBD7",
"E.	c #D2D2DD",
"F.	c #545458",
"G.	c #3B3C3F",
"H.	c #8A8B92",
"I.	c #E3E4F0",
"J.	c #E4E5F1",
"K.	c #DBDCE7",
"L.	c #67686D",
"M.	c #7A7B81",
"N.	c #D8DAE4",
"O.	c #D7D9E3",
"P.	c #5D5E63",
"Q.	c #3D3E41",
"R.	c #76777C",
"S.	c #717177",
"T.	c #3C3C3F",
"U.	c #7F8086",
"V.	c #D5D6E0",
"W.	c #E5E6F1",
"X.	c #E3E4EF",
"Y.	c #CACBD7",
"Z.	c #A5A6B4",
"`.	c #9A9BAA",
" +	c #A0A1AF",
".+	c #C7C9D6",
"++	c #D1D2DE",
"@+	c #8A8B93",
"#+	c #E3E4F1",
"$+	c #E4E5F2",
"%+	c #DBCED6",
"&+	c #665C5D",
"*+	c #3B3536",
"=+	c #7A6E6F",
"-+	c #D8CCD3",
";+	c #888991",
">+	c #404044",
",+	c #514A4C",
"'+	c #A39395",
")+	c #4C4445",
"!+	c #433C3D",
"~+	c #A79698",
"{+	c #E3CCCF",
"]+	c #E5D4DA",
"^+	c #E5E3EF",
"/+	c #E5E5F2",
"(+	c #E2E3F0",
"_+	c #C8C9D6",
":+	c #A1A2B1",
"<+	c #9D9EAC",
"[+	c #C6C7D6",
"}+	c #CECFDC",
"|+	c #5A5A60",
"1+	c #3A3A3E",
"2+	c #81828A",
"3+	c #D8DAE7",
"4+	c #DFE1EE",
"5+	c #DFDFEC",
"6+	c #DD5428",
"7+	c #5D1A02",
"8+	c #3E1101",
"9+	c #832503",
"0+	c #DF7655",
"a+	c #E0E1EE",
"b+	c #B7B8C3",
"c+	c #434448",
"d+	c #451605",
"e+	c #621B02",
"f+	c #3D1101",
"g+	c #631B02",
"h+	c #C63705",
"i+	c #EA4207",
"j+	c #EA4810",
"k+	c #E67C5B",
"l+	c #E0D4DB",
"m+	c #DEDFED",
"n+	c #C7C8D6",
"o+	c #9E9FAD",
"p+	c #C5C6D5",
"q+	c #D2D4E1",
"r+	c #75767E",
"s+	c #3A3B3F",
"t+	c #5E5F65",
"u+	c #AFB1BC",
"v+	c #D4D6E3",
"w+	c #D7A59B",
"x+	c #AD3005",
"y+	c #451302",
"z+	c #461302",
"A+	c #972A04",
"B+	c #E76033",
"C+	c #E0E2F0",
"D+	c #D9DBE9",
"E+	c #595153",
"F+	c #852503",
"G+	c #DD3E06",
"H+	c #E85E30",
"I+	c #DEDBE9",
"J+	c #C6C7D5",
"K+	c #DADBEA",
"L+	c #AAACB7",
"M+	c #48484D",
"N+	c #3F3F43",
"O+	c #55555B",
"P+	c #67686F",
"Q+	c #6A2D1A",
"R+	c #531702",
"S+	c #641C03",
"T+	c #C83805",
"U+	c #EA4911",
"V+	c #E0E0EF",
"W+	c #E0E1F0",
"X+	c #896C69",
"Y+	c #4B1502",
"Z+	c #A4482A",
"`+	c #E57E60",
" @	c #E7714D",
".@	c #EA460D",
"+@	c #E1ACA3",
"@@	c #DBDCEB",
"#@	c #D5D6E4",
"$@	c #A1A1AC",
"%@	c #56575D",
"&@	c #3A302F",
"*@	c #401201",
"=@	c #712004",
"-@	c #C43705",
";@	c #E74106",
">@	c #DECCD2",
",@	c #DDDFEE",
"'@	c #C18172",
")@	c #BE948E",
"!@	c #DEDFEE",
"~@	c #E4947F",
"{@	c #E2937F",
"]@	c #DDDEED",
"^@	c #DFE1F0",
"/@	c #E76F4A",
"(@	c #E68569",
"_@	c #E2B5B0",
":@	c #E67E60",
"<@	c #E1CCD1",
"[@	c #E68164",
"}@	c #E29E8E",
"|@	c #DFC3C4",
"1@	c #E85F32",
"2@	c #DFC3C5",
"3@	c #E29B8A",
"4@	c #E76338",
"5@	c #E76A43",
"6@	c #E85727",
"7@	c #EA450D",
"8@	c #DDCAD1",
"9@	c #E67B5B",
"0@	c #E3A89D",
"a@	c #E0DBE7",
"b@	c #EA4208",
"c@	c #E68367",
"d@	c #EA4A13",
"e@	c #EA450C",
"f@	c #E4A497",
"g@	c #DECDD3",
"h@	c #EA440B",
"i@	c #E29C8C",
"j@	c #E29E8F",
"k@	c #E94912",
"l@	c #E76A42",
"m@	c #E95321",
"n@	c #DFC6CA",
"o@	c #DCDDEC",
"p@	c #E1E1F0",
"q@	c #E1E2F0",
"r@	c #E6886D",
"s@	c #E9511D",
"t@	c #E3B4AE",
"u@	c #E59884",
"v@	c #E8653B",
"w@	c #E1DDE9",
"x@	c #DFDFEE",
"y@	c #DDDFEC",
"z@	c #E0E1EF",
"A@	c #E0D6E0",
"B@	c #E49986",
"C@	c #E3B2A9",
"D@	c #E0E2EF",
"E@	c #E58A70",
"F@	c #E2B9B4",
"G@	c #A0A1B0",
"H@	c #E1E2EF",
"I@	c #E79580",
"J@	c #E9663B",
"K@	c #E6B2A8",
"L@	c #E86F49",
"M@	c #E88060",
"N@	c #E4CFD3",
"O@	c #E7917A",
"P@	c #A3A4B2",
"Q@	c #C9CAD7",
"R@	c #E1E2EE",
"S@	c #E3DFE8",
"T@	c #EA501B",
"U@	c #E5B5AC",
"V@	c #E4E5F0",
"W@	c #E7957F",
"X@	c #E96539",
"Y@	c #EA4811",
"Z@	c #E4E4F0",
"`@	c #E4D7DD",
" #	c #E9673D",
".#	c #A3A5B2",
"+#	c #E9A491",
"@#	c #EA5E2E",
"##	c #E8E8F3",
"$#	c #E8E9F4",
"%#	c #E9AEA1",
"&#	c #EA4B14",
"*#	c #EA6235",
"=#	c #EA5A2A",
"-#	c #E8E1E9",
";#	c #B4B5C1",
">#	c #A2A3B1",
",#	c #B0B0BD",
"'#	c #C4C5D0",
")#	c #DDDEE8",
"!#	c #DEDEE8",
"~#	c #D6D6E0",
"{#	c #DCDDE5",
"]#	c #A4A5B4",
"^#	c #BEBFCA",
"/#	c #D2D3DC",
"(#	c #DCDCE5",
"_#	c #DFDFE8",
":#	c #E0E0E9",
"<#	c #DFE0E8",
"[#	c #AEB0BC",
"}#	c #C3C5CF",
"|#	c #E4E4EC",
"1#	c #E5E6ED",
"2#	c #ABACBB",
"3#	c #CACBD6",
"4#	c #D3D4DD",
"5#	c #D3D4DE",
"6#	c #B0B1C0",
"7#	c #A6A7B5",
"8#	c #B4B4C1",
". . . + @ # $ $ % % % % % % % % % % % % % % % % $ $ # @ + . . . ",
". . & * = - ; > , ' ' ' ' ' ' ' ' ' ' ' ' ' ' , > ) - = * & . . ",
". & ! ~ { ] ^ / ( ( ( _ ( ( ( ( ( ( ( ( ( ( ( ( : < [ } # ! & . ",
"+ * | 1 2 3 4 + 5 5 5 5 5 5 5 5 5 5 5 5 5 5 5 5 + 6 7 8 9 | * + ",
"@ 0 a b c 6 6 6 6 6 6 6 6 6 6 6 6 6 6 6 6 6 6 6 6 6 6 d e f g @ ",
"~ = h : c c c c c c c c c c c c c c c c c c c c d d d c _ i j ~ ",
"k ~ l m n o p q r r s t o u v w x y z z z A B C D z z z E F G k ",
"H I J K L M N O P P Q R M S T U M V W W 2 X Y Z ` W W W  .l ..H ",
"+.| ' @.L M #.$.%.%.&.R M *.=.-.M ;.%.%.>.,.M '.).%.%.%.!.~.{.H ",
"+.].^./.(._.:.<.[.[.}.|.1.2.3.4.5.6.7.8.9.0.M a.b.c.c.c.d.e.f.+.",
"g.h.i./.j.k.l.m.n.n.o.|.k.p.q.r.s.t.u.v.w.t.x.y.n.z.z.z.A.i.B.g.",
"g.C.D.E.F.G.H.I.J.J.K.L.G.M.N.O.P.Q.R.e.S.T.U.V.W.W.W.W.X.Y.Z.g.",
"`. +.+++F.G.@+#+$+$+%+&+*+=+-+$+;+>+,+'+)+!+~+{+]+^+/+/+(+_+:+g.",
"`.<+[+}+|+1+2+3+4+5+6+7+8+9+0+a+b+c+d+e+f+g+h+i+i+j+k+l+m+n+o+`.",
"`.g.p+q+r+s+t+u+v+w+x+y+z+A+B+C+D+E+f+8+8+F+G+i+i+i+i+H+I+J++.`.",
"`.`.p+K+L+M+N+O+P+Q+R+8+S+T+U+V+W+X+f+f+Y+Z+`+ @.@i+i+i++@p+`.`.",
"`.`.p+@@#@$@%@s+&@f+*@=@-@;@i+>@,@'@f+f+S+)@!@!@~@i+i+i+{@p+`.`.",
"`.`.p+]@^@W+W+W+/@i+i+(@i+i+i+_@W+:@i+i+i+<@W+W+[@i+i+i+}@p+`.`.",
"`.`.p+@@]@]@,@|@i+i+1@2@i+i+i+3@,@4@i+i+i+5@5@6@i+i+i+7@8@p+`.`.",
"`.`.p+]@^@W+W+9@i+i+0@a@b@i+i+c@W+d@i+i+i+i+i+i+i+i+e@f@,@p+`.`.",
"`.`.p+@@]@]@g@h@i+e@i@j@k@i+i+l@>@i+i+i+i+i+i+i+i+m@n@!@o@p+`.`.",
"`.H J+m+p@q@r@i+i+i+i+i+i+i+i+s@t@i+i+i+u@q@v@i+i+j+w@q@x@J+H `.",
"`.o+n+y@z@A@U+i+i+i+i+i+i+i+i+i+B@i+i+i+C@D@E@i+i+i+F@D@m+n+o+`.",
"`.G@_+H@J.I@i+i+J@K@K@K@L@i+i+i+M@i+i+i+N@$+K@i+i+i+O@$+(+_+G@`.",
"g.P@Q@R@S@T@i+i+U@V@V@V@W@i+i+i+X@i+i+Y@Z@J.`@i+i+i+ #J.i.Q@P@g.",
"+..#D.V@+#i+i+@###$#$#$#%#i+i+i+&#i+i+*#$#$#$#=#i+i+e@-#W.| .#+.",
";#>#,#'#)#!#!#!#!#!#!#!#!#!#!#!#!#!#!#!#!#~#!#!#!#!#!#)#'#,#>#;#",
"{#]#h.^#/#(#_#}.:#:#:#:#:#:#:#:#:#:#:#:#:#:#:#:#:#:#<#/#^#h.]#{#",
"+ ! >#[#}#J ] |#1#1#1#1#1#1#1#1#1#1#1#1#1#1#1#1#|#] J }#[#>#! + ",
". & 2#P@[#^#3#~.4#5#5#5#5#5#5#5#5#5#5#5#5#5#5#h ~.3#^#[#P@2#& . ",
". . & 6#7#h.f.8#................................8#f.h.7#6#& . . ",
". . . + {#~ H +.H H H H H H H H H H H H H H H H +.H ~ {#+ . . . "};
