/* XPM */
static char * UVAutioRatioIcon_xpm[] = {
"32 32 219 2",
"  	c None",
". 	c #FFFFFF",
"+ 	c #F5F5F5",
"@ 	c #E8E8E8",
"# 	c #DCDCDC",
"$ 	c #FAFAFA",
"% 	c #DEDEDE",
"& 	c #DFDFDF",
"* 	c #EAEAEA",
"= 	c #F2F2F2",
"- 	c #F6F6F6",
"; 	c #F4F4F4",
"> 	c #F3F3F3",
", 	c #F1F1F1",
"' 	c #F0F0F0",
") 	c #EFEFEF",
"! 	c #EEEEEE",
"~ 	c #EDEDED",
"{ 	c #ECECEC",
"] 	c #EBEBEB",
"^ 	c #E9E9E9",
"/ 	c #E6E6E6",
"( 	c #E2E2E2",
"_ 	c #DDDDDD",
": 	c #E7E7E7",
"< 	c #F7F7F7",
"[ 	c #E5E5E5",
"} 	c #E4E4E4",
"| 	c #6C6C6C",
"1 	c #555555",
"2 	c #9F9F9F",
"3 	c #7D7D7D",
"4 	c #535353",
"5 	c #8B8B8B",
"6 	c #919191",
"7 	c #575757",
"8 	c #5C5C5C",
"9 	c #B6B6B6",
"0 	c #646464",
"a 	c #505050",
"b 	c #ADADAD",
"c 	c #E3E3E3",
"d 	c #E1E1E1",
"e 	c #5A5A5A",
"f 	c #404040",
"g 	c #939393",
"h 	c #3E3E3E",
"i 	c #7F7F7F",
"j 	c #A5A5A5",
"k 	c #545454",
"l 	c #B0B0B0",
"m 	c #929292",
"n 	c #424242",
"o 	c #494949",
"p 	c #CCCCCC",
"q 	c #595959",
"r 	c #C9C9C9",
"s 	c #696969",
"t 	c #3D3D3D",
"u 	c #777777",
"v 	c #D0D0D0",
"w 	c #737373",
"x 	c #3C3C3C",
"y 	c #D9D9D9",
"z 	c #3F3F3F",
"A 	c #878787",
"B 	c #434343",
"C 	c #4E4E4E",
"D 	c #A6A6A6",
"E 	c #E0E0E0",
"F 	c #6B6B6B",
"G 	c #7E7E7E",
"H 	c #B2B2B2",
"I 	c #4F4F4F",
"J 	c #AFAFAF",
"K 	c #999999",
"L 	c #C2C2C2",
"M 	c #5F5F5F",
"N 	c #CFCFCF",
"O 	c #717171",
"P 	c #D3D3D3",
"Q 	c #585858",
"R 	c #E2D5D0",
"S 	c #695F5B",
"T 	c #3D3734",
"U 	c #7E706B",
"V 	c #DED0CC",
"W 	c #414141",
"X 	c #524B48",
"Y 	c #A5938D",
"Z 	c #4C4441",
"` 	c #433C39",
" .	c #A7958F",
"..	c #E2CAC1",
"+.	c #E2D1CA",
"@.	c #E1DFDE",
"#.	c #616161",
"$.	c #8A8A8A",
"%.	c #ECEBEB",
"&.	c #DF5221",
"*.	c #5E1800",
"=.	c #3E1000",
"-.	c #832200",
";.	c #E3754F",
">.	c #BEBEBE",
",.	c #454545",
"'.	c #451403",
").	c #621900",
"!.	c #3D1000",
"~.	c #631900",
"{.	c #C73300",
"].	c #EB3D00",
"^.	c #EA4308",
"/.	c #E67851",
"(.	c #E0D1CB",
"_.	c #656565",
":.	c #BABABA",
"<.	c #DFA996",
"[.	c #AE2D00",
"}.	c #461200",
"|.	c #982700",
"1.	c #E95D2C",
"2.	c #5B5350",
"3.	c #852200",
"4.	c #DE3900",
"5.	c #E85826",
"6.	c #DDD9D8",
"7.	c #B7B7B7",
"8.	c #4C4C4C",
"9.	c #6D6D6D",
"0.	c #6B2C16",
"a.	c #531500",
"b.	c #651A00",
"c.	c #C83400",
"d.	c #EA440A",
"e.	c #E7E6E6",
"f.	c #8C6E63",
"g.	c #4B1300",
"h.	c #A54524",
"i.	c #E67C56",
"j.	c #E86D43",
"k.	c #EA4005",
"l.	c #E2A995",
"m.	c #3D322E",
"n.	c #401000",
"o.	c #711E00",
"p.	c #C53300",
"q.	c #E83C00",
"r.	c #E6D2CA",
"s.	c #C4826A",
"t.	c #C19585",
"u.	c #E49174",
"v.	c #E49275",
"w.	c #EB6E43",
"x.	c #EA8561",
"y.	c #E7B7A6",
"z.	c #E87C56",
"A.	c #E2CBC3",
"B.	c #E57D58",
"C.	c #E39C83",
"D.	c #EBCCC1",
"E.	c #EA5C2A",
"F.	c #E8CABF",
"G.	c #E79C82",
"H.	c #E96030",
"I.	c #E8673A",
"J.	c #E86739",
"K.	c #E9531E",
"L.	c #E2CDC6",
"M.	c #EB7B54",
"N.	c #E9AA95",
"O.	c #E8E1DF",
"P.	c #EA3D00",
"Q.	c #E8815D",
"R.	c #EA450B",
"S.	c #EA4004",
"T.	c #E4A28B",
"U.	c #EBD7D0",
"V.	c #EA3F03",
"W.	c #E99F85",
"X.	c #E8A188",
"Y.	c #E9673A",
"Z.	c #E3CFC8",
"`.	c #E94F19",
" +	c #E2C7BE",
".+	c #EA8866",
"++	c #EA4C15",
"@+	c #E5B4A2",
"#+	c #E49377",
"$+	c #E86132",
"%+	c #EA4207",
"&+	c #E2DDDB",
"*+	c #EADEDA",
"=+	c #E6977C",
"-+	c #E3AF9D",
";+	c #E58765",
">+	c #E5BAAA",
",+	c #EA9578",
"'+	c #EA6333",
")+	c #E7B09D",
"!+	c #E6B09D",
"~+	c #E96B3F",
"{+	c #E77B55",
"]+	c #E4AD9A",
"^+	c #E88F70",
"/+	c #EAE4E2",
"(+	c #EA4B14",
"_+	c #E8B5A3",
":+	c #E69274",
"<+	c #E86030",
"[+	c #E1E0E0",
"}+	c #E1D2CD",
"|+	c #E96435",
"1+	c #E9A289",
"2+	c #EA5926",
"3+	c #E6E5E5",
"4+	c #E5A993",
"5+	c #E95521",
"6+	c #E8E0DD",
". . . . + @ # # # # # # # # # # # # # # # # # # # # @ + . . . . ",
". . $ % # # # # # # # # # # # # # # # # # # # # # # # # % $ . . ",
". $ # # & * = - + ; ; > = , ' ' ) ! ~ ~ { ] * * ^ / ( _ # # $ . ",
". % # : < < - + ; ; > = , , ' ) ! ~ ~ { ] * * ^ @ : : [ & # % . ",
"+ # & < < - + + ; > = , , ' ) ! ! ~ { ] ] * ^ @ : : / [ } # # + ",
"@ # ] < - + + ; > = = , ' ) ) ! ~ { ] ] * ^ @ @ : / [ } } & # @ ",
"# # = / | 1 2 = = = @ 3 4 5 6 7 8 # ] * ^ 9 0 a b [ [ } c d # # ",
"# # - } e f g = = , / | h i j k h l * ^ [ m n o p [ } c ( ( # # ",
"# # - c q f g , , ' / | h i r s t u ^ ^ v w x u y } c c ( d # # ",
"# # + ( q z g ' , ' [ | h i % A B C # @ 9 4 t D E c c ( d E # # ",
"# # ; ( q z m ' ' ) } F h G & H I f J d K f 1 L c c ( d E E # # ",
"# # ; d q z m ) ) ! c F h G & _ M h u N O x G P c ( d d E & # # ",
"# # > E Q z 6 ! ! ! R S T U V ^ 5 W X Y Z `  ...+.@.d E & % # # ",
"# # > d #.z $.@ ! %.&.*.=.-.;.@ >.,.'.).!.~.{.].].^./.(.& _ # # ",
"# # = [ G h _.:.E <.[.}.}.|.1.@ E 2.!.=.=.3.4.].].].].5.6.% # # ",
"# # , ~ 7.8.B e 9.0.a.=.b.c.d.e./ f.!.!.g.h.i.j.k.].].].l.% # # ",
"# # , ' / b 8 z m.!.n.o.p.q.].r./ s.!.!.b.t.d E u.].].].v.& # # ",
"# # ' ) ! ~ ~ { w.].].x.].].].y.[ z.].].].A.E E B.].].].C.d # # ",
"# # ) ! ! ~ { D.].].E.F.].].].G.} H.].].].I.J.K.].].].k.L.( # # ",
"# # ! ! ~ { ] M.].].N.O.P.].].Q.} R.].].].].].].].].S.T.( c # # ",
"# # ! ~ { { U.V.].S.W.X.d.].].Y.Z.].].].].].].].].`. +( c } # # ",
"# # ~ ~ { ] .+].].].].].].].].++@+].].].#+& $+].].%+&+c } [ # # ",
"# # ~ { ] *+d.].].].].].].].].].=+].].].-+d ;+].].].>+[ / : # # ",
"# # { ] * ,+].].'+)+)+!+~+].].].{+].].].A.d ]+].].].^+/ : @ # # ",
"# # ] ] /+(+].]._+/ [ } :+].].].<+].].^.[+d }+].].].|+: @ ^ # # ",
"# # @ * 1+].].2+3+[ } } 4+].].].R.].].1.d d c 5+].].S.6+^ : # # ",
"@ # c ^ @ @ : / [ [ } c ( d E d d d d ( d c } [ / : @ ^ * c # @ ",
"+ # _ @ @ : / [ [ } c ( ( E d d d d ( d c } [ / : @ ^ * @ # # + ",
". % # E : / [ [ } c c ( E ( ( d c c c } [ / : @ ^ * ] @ % # % . ",
". $ # # _ d c } c c d ( ( ( ( c c c c [ / : @ ^ * @ c # # # $ . ",
". . $ % # # # # # # # # # # # # # # # # # # # # # # # # % $ . . ",
". . . . + @ # # # # # # # # # # # # # # # # # # # # @ + . . . . "};
